<?xml version="1.0" standalone="no"?>
<!DOCTYPE svg PUBLIC "-//W3C//DTD SVG 20010904//EN"
 "http://www.w3.org/TR/2001/REC-SVG-20010904/DTD/svg10.dtd">
<svg version="1.0" xmlns="http://www.w3.org/2000/svg"
 width="600.000000pt" height="450.000000pt" viewBox="0 0 600.000000 450.000000"
 preserveAspectRatio="xMidYMid meet">

<g transform="translate(0.000000,450.000000) scale(0.100000,-0.100000)"
fill="#000000" stroke="none">
<path d="M4953 4446 c-234 -81 -241 -101 -47 -127 155 -20 256 -68 335 -158
134 -152 159 -366 88 -776 -22 -126 -23 -145 -9 -145 19 0 50 66 94 200 128
390 125 671 -9 894 l-34 57 60 -33 c76 -42 168 -123 207 -185 17 -27 44 -88
62 -138 17 -49 38 -98 47 -107 36 -41 151 -9 212 58 36 38 41 50 41 90 0 83
-57 143 -205 217 -97 49 -151 70 -370 143 -244 82 -260 83 -472 10z"/>
<path d="M4905 3190 c-399 -137 -687 -170 -1310 -150 -589 18 -840 -9 -1175
-126 -553 -192 -1006 -635 -1656 -1619 -530 -803 -817 -1295 -755 -1295 23 0
149 162 431 555 402 560 631 842 940 1159 496 508 964 807 1422 907 75 16 153
22 399 29 417 12 679 38 929 92 394 85 778 259 928 422 41 44 55 87 30 85 -7
-1 -89 -27 -183 -59z"/>
<path d="M5204 3047 c-27 -29 -88 -110 -136 -180 -122 -174 -191 -259 -300
-363 -119 -113 -251 -207 -398 -283 -342 -176 -616 -208 -1340 -156 -412 30
-699 -20 -1015 -175 -228 -111 -418 -253 -625 -466 -170 -175 -400 -483 -400
-536 0 -49 83 11 305 223 313 298 483 413 728 494 166 54 272 69 512 69 263 0
463 -24 865 -101 113 -22 151 -25 233 -19 239 15 463 96 679 242 368 250 758
737 922 1150 34 88 46 154 27 154 -5 0 -31 -24 -57 -53z"/>
<path d="M1020 505 c0 -211 3 -273 15 -301 22 -54 63 -66 243 -72 l152 -5 0
32 0 31 -144 0 c-139 0 -146 1 -173 24 l-28 24 -3 266 -3 266 -29 0 -30 0 0
-265z"/>
<path d="M3690 533 c0 -272 7 -301 77 -347 109 -71 302 -58 381 26 37 40 42
81 42 325 l0 233 -35 0 -35 0 0 -236 c0 -267 -2 -274 -74 -315 -56 -32 -153
-33 -213 -1 -73 38 -73 37 -73 309 l0 243 -35 0 -35 0 0 -237z"/>
<path d="M1783 750 c-144 -30 -198 -117 -197 -315 0 -212 65 -293 240 -303
224 -12 313 89 302 345 -7 154 -39 220 -130 257 -46 20 -159 28 -215 16z m184
-70 c53 -23 77 -63 93 -147 24 -124 -3 -259 -61 -307 -42 -36 -128 -52 -194
-39 -69 15 -101 36 -128 87 -19 36 -22 57 -22 166 0 115 2 129 25 170 34 62
91 90 180 90 42 0 80 -7 107 -20z"/>
<path d="M2423 753 l-93 -4 0 -309 0 -310 30 0 30 0 0 125 0 125 87 0 c170 0
251 27 301 100 32 47 28 140 -8 194 -48 70 -129 88 -347 79z m240 -67 c90 -37
99 -178 15 -222 -44 -23 -133 -34 -215 -27 l-73 6 0 123 c0 108 2 123 18 127
42 11 224 6 255 -7z"/>
<path d="M2960 445 l0 -315 35 0 35 0 0 150 0 150 200 0 200 0 0 -150 0 -150
30 0 30 0 0 315 0 315 -30 0 -30 0 0 -135 0 -135 -200 0 -200 0 0 135 0 135
-35 0 -35 0 0 -315z"/>
<path d="M4478 752 l-88 -3 0 -314 0 -315 30 0 30 0 0 135 0 135 85 0 85 0 37
-48 c21 -27 68 -87 105 -135 65 -83 69 -86 93 -75 14 6 25 15 25 19 0 4 -40
60 -90 123 -49 64 -90 118 -90 120 0 3 14 7 31 11 65 14 129 96 129 165 0 38
-24 98 -52 127 -42 44 -145 62 -330 55z m227 -66 c102 -30 115 -175 20 -220
-40 -19 -183 -32 -239 -22 l-36 7 0 124 0 125 108 -1 c59 0 125 -6 147 -13z"/>
<path d="M5212 628 c-34 -73 -95 -207 -136 -298 -42 -90 -76 -169 -76 -176 0
-14 53 -30 57 -17 2 4 23 51 47 103 l43 95 150 3 150 3 48 -106 c48 -105 60
-117 94 -96 12 8 5 31 -41 133 -31 68 -93 205 -138 306 -78 172 -84 182 -110
182 -25 0 -32 -9 -88 -132z m151 -103 l54 -120 -115 -3 c-63 -1 -116 -1 -118
1 -8 7 111 255 118 248 4 -4 32 -60 61 -126z"/>
</g>
</svg>
